<mxfile host="app.diagrams.net" agent="Mozilla/5.0 (Windows NT 10.0; Win64; x64; rv:132.0) Gecko/20100101 Firefox/132.0" version="24.7.16">
  <diagram name="Page-1" id="Y78mjj1Ao7lqS0v_sBWi">
    <mxGraphModel dx="2345" dy="1138" grid="1" gridSize="10" guides="1" tooltips="1" connect="1" arrows="1" fold="1" page="1" pageScale="1" pageWidth="850" pageHeight="1100" background="none" math="0" shadow="0">
      <root>
        <mxCell id="0" />
        <mxCell id="1" parent="0" />
        <mxCell id="32vG_aWgIUVik16R4zgf-99" style="edgeStyle=orthogonalEdgeStyle;rounded=0;orthogonalLoop=1;jettySize=auto;html=1;" edge="1" parent="1" source="32vG_aWgIUVik16R4zgf-5" target="32vG_aWgIUVik16R4zgf-59">
          <mxGeometry relative="1" as="geometry" />
        </mxCell>
        <mxCell id="32vG_aWgIUVik16R4zgf-5" value="Client" style="swimlane;fontStyle=0;childLayout=stackLayout;horizontal=1;startSize=30;horizontalStack=0;resizeParent=1;resizeParentMax=0;resizeLast=0;collapsible=1;marginBottom=0;whiteSpace=wrap;html=1;" vertex="1" parent="1">
          <mxGeometry x="355" y="860" width="140" height="60" as="geometry" />
        </mxCell>
        <mxCell id="32vG_aWgIUVik16R4zgf-6" value="Main.java" style="text;strokeColor=none;fillColor=none;align=left;verticalAlign=middle;spacingLeft=4;spacingRight=4;overflow=hidden;points=[[0,0.5],[1,0.5]];portConstraint=eastwest;rotatable=0;whiteSpace=wrap;html=1;" vertex="1" parent="32vG_aWgIUVik16R4zgf-5">
          <mxGeometry y="30" width="140" height="30" as="geometry" />
        </mxCell>
        <mxCell id="32vG_aWgIUVik16R4zgf-93" style="edgeStyle=orthogonalEdgeStyle;rounded=0;orthogonalLoop=1;jettySize=auto;html=1;" edge="1" parent="1" source="32vG_aWgIUVik16R4zgf-14" target="32vG_aWgIUVik16R4zgf-60">
          <mxGeometry relative="1" as="geometry" />
        </mxCell>
        <mxCell id="32vG_aWgIUVik16R4zgf-14" value="&lt;div&gt;AirShippingOrderFactory&lt;/div&gt;" style="swimlane;fontStyle=0;childLayout=stackLayout;horizontal=1;startSize=30;horizontalStack=0;resizeParent=1;resizeParentMax=0;resizeLast=0;collapsible=1;marginBottom=0;whiteSpace=wrap;html=1;" vertex="1" parent="1">
          <mxGeometry x="150" y="169" width="140" height="60" as="geometry" />
        </mxCell>
        <mxCell id="32vG_aWgIUVik16R4zgf-83" value="createShippingOrder()" style="text;strokeColor=none;fillColor=none;align=left;verticalAlign=middle;spacingLeft=4;spacingRight=4;overflow=hidden;points=[[0,0.5],[1,0.5]];portConstraint=eastwest;rotatable=0;whiteSpace=wrap;html=1;" vertex="1" parent="32vG_aWgIUVik16R4zgf-14">
          <mxGeometry y="30" width="140" height="30" as="geometry" />
        </mxCell>
        <mxCell id="32vG_aWgIUVik16R4zgf-95" style="edgeStyle=orthogonalEdgeStyle;rounded=0;orthogonalLoop=1;jettySize=auto;html=1;" edge="1" parent="1" source="32vG_aWgIUVik16R4zgf-19" target="32vG_aWgIUVik16R4zgf-67">
          <mxGeometry relative="1" as="geometry" />
        </mxCell>
        <mxCell id="32vG_aWgIUVik16R4zgf-19" value="&lt;div&gt;LandShippingOrderFactory&lt;/div&gt;" style="swimlane;fontStyle=0;childLayout=stackLayout;horizontal=1;startSize=30;horizontalStack=0;resizeParent=1;resizeParentMax=0;resizeLast=0;collapsible=1;marginBottom=0;whiteSpace=wrap;html=1;" vertex="1" parent="1">
          <mxGeometry x="560" y="169" width="150" height="60" as="geometry" />
        </mxCell>
        <mxCell id="32vG_aWgIUVik16R4zgf-82" value="createShippingOrder()" style="text;strokeColor=none;fillColor=none;align=left;verticalAlign=middle;spacingLeft=4;spacingRight=4;overflow=hidden;points=[[0,0.5],[1,0.5]];portConstraint=eastwest;rotatable=0;whiteSpace=wrap;html=1;" vertex="1" parent="32vG_aWgIUVik16R4zgf-19">
          <mxGeometry y="30" width="150" height="30" as="geometry" />
        </mxCell>
        <mxCell id="32vG_aWgIUVik16R4zgf-86" style="edgeStyle=orthogonalEdgeStyle;rounded=0;orthogonalLoop=1;jettySize=auto;html=1;" edge="1" parent="1" source="32vG_aWgIUVik16R4zgf-27" target="32vG_aWgIUVik16R4zgf-35">
          <mxGeometry relative="1" as="geometry" />
        </mxCell>
        <mxCell id="32vG_aWgIUVik16R4zgf-94" style="edgeStyle=orthogonalEdgeStyle;rounded=0;orthogonalLoop=1;jettySize=auto;html=1;" edge="1" parent="1" source="32vG_aWgIUVik16R4zgf-27" target="32vG_aWgIUVik16R4zgf-74">
          <mxGeometry relative="1" as="geometry" />
        </mxCell>
        <mxCell id="32vG_aWgIUVik16R4zgf-27" value="SeaShippingOrderFactory" style="swimlane;fontStyle=0;childLayout=stackLayout;horizontal=1;startSize=30;horizontalStack=0;resizeParent=1;resizeParentMax=0;resizeLast=0;collapsible=1;marginBottom=0;whiteSpace=wrap;html=1;" vertex="1" parent="1">
          <mxGeometry x="355" y="170" width="140" height="60" as="geometry" />
        </mxCell>
        <mxCell id="32vG_aWgIUVik16R4zgf-81" value="createShippingOrder()" style="text;strokeColor=none;fillColor=none;align=left;verticalAlign=middle;spacingLeft=4;spacingRight=4;overflow=hidden;points=[[0,0.5],[1,0.5]];portConstraint=eastwest;rotatable=0;whiteSpace=wrap;html=1;" vertex="1" parent="32vG_aWgIUVik16R4zgf-27">
          <mxGeometry y="30" width="140" height="30" as="geometry" />
        </mxCell>
        <mxCell id="32vG_aWgIUVik16R4zgf-31" value="ShippingOrder" style="swimlane;fontStyle=0;childLayout=stackLayout;horizontal=1;startSize=30;horizontalStack=0;resizeParent=1;resizeParentMax=0;resizeLast=0;collapsible=1;marginBottom=0;whiteSpace=wrap;html=1;" vertex="1" parent="1">
          <mxGeometry x="345" y="550" width="160" height="210" as="geometry" />
        </mxCell>
        <mxCell id="32vG_aWgIUVik16R4zgf-32" value="&lt;div&gt;prepareShipment()&lt;/div&gt;" style="text;strokeColor=none;fillColor=none;align=left;verticalAlign=middle;spacingLeft=4;spacingRight=4;overflow=hidden;points=[[0,0.5],[1,0.5]];portConstraint=eastwest;rotatable=0;whiteSpace=wrap;html=1;" vertex="1" parent="32vG_aWgIUVik16R4zgf-31">
          <mxGeometry y="30" width="160" height="30" as="geometry" />
        </mxCell>
        <mxCell id="32vG_aWgIUVik16R4zgf-33" value="calculateCost()" style="text;strokeColor=none;fillColor=none;align=left;verticalAlign=middle;spacingLeft=4;spacingRight=4;overflow=hidden;points=[[0,0.5],[1,0.5]];portConstraint=eastwest;rotatable=0;whiteSpace=wrap;html=1;" vertex="1" parent="32vG_aWgIUVik16R4zgf-31">
          <mxGeometry y="60" width="160" height="30" as="geometry" />
        </mxCell>
        <mxCell id="32vG_aWgIUVik16R4zgf-34" value="generateDocumentation()" style="text;strokeColor=none;fillColor=none;align=left;verticalAlign=middle;spacingLeft=4;spacingRight=4;overflow=hidden;points=[[0,0.5],[1,0.5]];portConstraint=eastwest;rotatable=0;whiteSpace=wrap;html=1;" vertex="1" parent="32vG_aWgIUVik16R4zgf-31">
          <mxGeometry y="90" width="160" height="30" as="geometry" />
        </mxCell>
        <mxCell id="32vG_aWgIUVik16R4zgf-57" value="&lt;div align=&quot;left&quot;&gt;&amp;nbsp;orderID&lt;br&gt;&lt;/div&gt;" style="text;strokeColor=none;align=left;fillColor=none;html=1;verticalAlign=middle;whiteSpace=wrap;rounded=0;" vertex="1" parent="32vG_aWgIUVik16R4zgf-31">
          <mxGeometry y="120" width="160" height="30" as="geometry" />
        </mxCell>
        <mxCell id="32vG_aWgIUVik16R4zgf-58" value="&amp;nbsp;weight" style="text;strokeColor=none;align=left;fillColor=none;html=1;verticalAlign=middle;whiteSpace=wrap;rounded=0;" vertex="1" parent="32vG_aWgIUVik16R4zgf-31">
          <mxGeometry y="150" width="160" height="30" as="geometry" />
        </mxCell>
        <mxCell id="32vG_aWgIUVik16R4zgf-59" value="&amp;nbsp;destination" style="text;strokeColor=none;align=left;fillColor=none;html=1;verticalAlign=middle;whiteSpace=wrap;rounded=0;" vertex="1" parent="32vG_aWgIUVik16R4zgf-31">
          <mxGeometry y="180" width="160" height="30" as="geometry" />
        </mxCell>
        <mxCell id="32vG_aWgIUVik16R4zgf-35" value="ShippingOrderFactory" style="swimlane;fontStyle=0;childLayout=stackLayout;horizontal=1;startSize=30;horizontalStack=0;resizeParent=1;resizeParentMax=0;resizeLast=0;collapsible=1;marginBottom=0;whiteSpace=wrap;html=1;" vertex="1" parent="1">
          <mxGeometry x="355" y="10" width="140" height="60" as="geometry" />
        </mxCell>
        <mxCell id="32vG_aWgIUVik16R4zgf-36" value="createShippingOrder()" style="text;strokeColor=none;fillColor=none;align=left;verticalAlign=middle;spacingLeft=4;spacingRight=4;overflow=hidden;points=[[0,0.5],[1,0.5]];portConstraint=eastwest;rotatable=0;whiteSpace=wrap;html=1;" vertex="1" parent="32vG_aWgIUVik16R4zgf-35">
          <mxGeometry y="30" width="140" height="30" as="geometry" />
        </mxCell>
        <mxCell id="32vG_aWgIUVik16R4zgf-60" value="AirShippingOrder" style="swimlane;fontStyle=0;childLayout=stackLayout;horizontal=1;startSize=30;horizontalStack=0;resizeParent=1;resizeParentMax=0;resizeLast=0;collapsible=1;marginBottom=0;whiteSpace=wrap;html=1;" vertex="1" parent="1">
          <mxGeometry x="140" y="320" width="160" height="150" as="geometry" />
        </mxCell>
        <mxCell id="32vG_aWgIUVik16R4zgf-61" value="&lt;div&gt;prepareShipment()&lt;/div&gt;" style="text;strokeColor=none;fillColor=none;align=left;verticalAlign=middle;spacingLeft=4;spacingRight=4;overflow=hidden;points=[[0,0.5],[1,0.5]];portConstraint=eastwest;rotatable=0;whiteSpace=wrap;html=1;" vertex="1" parent="32vG_aWgIUVik16R4zgf-60">
          <mxGeometry y="30" width="160" height="30" as="geometry" />
        </mxCell>
        <mxCell id="32vG_aWgIUVik16R4zgf-62" value="calculateCost()" style="text;strokeColor=none;fillColor=none;align=left;verticalAlign=middle;spacingLeft=4;spacingRight=4;overflow=hidden;points=[[0,0.5],[1,0.5]];portConstraint=eastwest;rotatable=0;whiteSpace=wrap;html=1;" vertex="1" parent="32vG_aWgIUVik16R4zgf-60">
          <mxGeometry y="60" width="160" height="30" as="geometry" />
        </mxCell>
        <mxCell id="32vG_aWgIUVik16R4zgf-63" value="generateDocumentation()" style="text;strokeColor=none;fillColor=none;align=left;verticalAlign=middle;spacingLeft=4;spacingRight=4;overflow=hidden;points=[[0,0.5],[1,0.5]];portConstraint=eastwest;rotatable=0;whiteSpace=wrap;html=1;" vertex="1" parent="32vG_aWgIUVik16R4zgf-60">
          <mxGeometry y="90" width="160" height="30" as="geometry" />
        </mxCell>
        <mxCell id="32vG_aWgIUVik16R4zgf-64" value="&amp;nbsp;airwayBillNumber" style="text;strokeColor=none;align=left;fillColor=none;html=1;verticalAlign=middle;whiteSpace=wrap;rounded=0;" vertex="1" parent="32vG_aWgIUVik16R4zgf-60">
          <mxGeometry y="120" width="160" height="30" as="geometry" />
        </mxCell>
        <mxCell id="32vG_aWgIUVik16R4zgf-67" value="LandShippingOrder" style="swimlane;fontStyle=0;childLayout=stackLayout;horizontal=1;startSize=30;horizontalStack=0;resizeParent=1;resizeParentMax=0;resizeLast=0;collapsible=1;marginBottom=0;whiteSpace=wrap;html=1;" vertex="1" parent="1">
          <mxGeometry x="555" y="320" width="160" height="150" as="geometry" />
        </mxCell>
        <mxCell id="32vG_aWgIUVik16R4zgf-68" value="&lt;div&gt;prepareShipment()&lt;/div&gt;" style="text;strokeColor=none;fillColor=none;align=left;verticalAlign=middle;spacingLeft=4;spacingRight=4;overflow=hidden;points=[[0,0.5],[1,0.5]];portConstraint=eastwest;rotatable=0;whiteSpace=wrap;html=1;" vertex="1" parent="32vG_aWgIUVik16R4zgf-67">
          <mxGeometry y="30" width="160" height="30" as="geometry" />
        </mxCell>
        <mxCell id="32vG_aWgIUVik16R4zgf-69" value="calculateCost()" style="text;strokeColor=none;fillColor=none;align=left;verticalAlign=middle;spacingLeft=4;spacingRight=4;overflow=hidden;points=[[0,0.5],[1,0.5]];portConstraint=eastwest;rotatable=0;whiteSpace=wrap;html=1;" vertex="1" parent="32vG_aWgIUVik16R4zgf-67">
          <mxGeometry y="60" width="160" height="30" as="geometry" />
        </mxCell>
        <mxCell id="32vG_aWgIUVik16R4zgf-70" value="generateDocumentation()" style="text;strokeColor=none;fillColor=none;align=left;verticalAlign=middle;spacingLeft=4;spacingRight=4;overflow=hidden;points=[[0,0.5],[1,0.5]];portConstraint=eastwest;rotatable=0;whiteSpace=wrap;html=1;" vertex="1" parent="32vG_aWgIUVik16R4zgf-67">
          <mxGeometry y="90" width="160" height="30" as="geometry" />
        </mxCell>
        <mxCell id="32vG_aWgIUVik16R4zgf-71" value="&amp;nbsp;deliveryTruckID" style="text;strokeColor=none;align=left;fillColor=none;html=1;verticalAlign=middle;whiteSpace=wrap;rounded=0;" vertex="1" parent="32vG_aWgIUVik16R4zgf-67">
          <mxGeometry y="120" width="160" height="30" as="geometry" />
        </mxCell>
        <mxCell id="32vG_aWgIUVik16R4zgf-74" value="SeaShippingOrder" style="swimlane;fontStyle=0;childLayout=stackLayout;horizontal=1;startSize=30;horizontalStack=0;resizeParent=1;resizeParentMax=0;resizeLast=0;collapsible=1;marginBottom=0;whiteSpace=wrap;html=1;" vertex="1" parent="1">
          <mxGeometry x="345" y="320" width="160" height="150" as="geometry" />
        </mxCell>
        <mxCell id="32vG_aWgIUVik16R4zgf-75" value="&lt;div&gt;prepareShipment()&lt;/div&gt;" style="text;strokeColor=none;fillColor=none;align=left;verticalAlign=middle;spacingLeft=4;spacingRight=4;overflow=hidden;points=[[0,0.5],[1,0.5]];portConstraint=eastwest;rotatable=0;whiteSpace=wrap;html=1;" vertex="1" parent="32vG_aWgIUVik16R4zgf-74">
          <mxGeometry y="30" width="160" height="30" as="geometry" />
        </mxCell>
        <mxCell id="32vG_aWgIUVik16R4zgf-76" value="calculateCost()" style="text;strokeColor=none;fillColor=none;align=left;verticalAlign=middle;spacingLeft=4;spacingRight=4;overflow=hidden;points=[[0,0.5],[1,0.5]];portConstraint=eastwest;rotatable=0;whiteSpace=wrap;html=1;" vertex="1" parent="32vG_aWgIUVik16R4zgf-74">
          <mxGeometry y="60" width="160" height="30" as="geometry" />
        </mxCell>
        <mxCell id="32vG_aWgIUVik16R4zgf-77" value="generateDocumentation()" style="text;strokeColor=none;fillColor=none;align=left;verticalAlign=middle;spacingLeft=4;spacingRight=4;overflow=hidden;points=[[0,0.5],[1,0.5]];portConstraint=eastwest;rotatable=0;whiteSpace=wrap;html=1;" vertex="1" parent="32vG_aWgIUVik16R4zgf-74">
          <mxGeometry y="90" width="160" height="30" as="geometry" />
        </mxCell>
        <mxCell id="32vG_aWgIUVik16R4zgf-78" value="&amp;nbsp;billOfLading" style="text;strokeColor=none;align=left;fillColor=none;html=1;verticalAlign=middle;whiteSpace=wrap;rounded=0;" vertex="1" parent="32vG_aWgIUVik16R4zgf-74">
          <mxGeometry y="120" width="160" height="30" as="geometry" />
        </mxCell>
        <mxCell id="32vG_aWgIUVik16R4zgf-90" style="edgeStyle=orthogonalEdgeStyle;rounded=0;orthogonalLoop=1;jettySize=auto;html=1;entryX=0.233;entryY=1.001;entryDx=0;entryDy=0;entryPerimeter=0;" edge="1" parent="1" source="32vG_aWgIUVik16R4zgf-14" target="32vG_aWgIUVik16R4zgf-36">
          <mxGeometry relative="1" as="geometry" />
        </mxCell>
        <mxCell id="32vG_aWgIUVik16R4zgf-92" style="edgeStyle=orthogonalEdgeStyle;rounded=0;orthogonalLoop=1;jettySize=auto;html=1;entryX=0.821;entryY=1;entryDx=0;entryDy=0;entryPerimeter=0;" edge="1" parent="1" source="32vG_aWgIUVik16R4zgf-19" target="32vG_aWgIUVik16R4zgf-36">
          <mxGeometry relative="1" as="geometry" />
        </mxCell>
        <mxCell id="32vG_aWgIUVik16R4zgf-96" style="edgeStyle=orthogonalEdgeStyle;rounded=0;orthogonalLoop=1;jettySize=auto;html=1;" edge="1" parent="1" source="32vG_aWgIUVik16R4zgf-64" target="32vG_aWgIUVik16R4zgf-34">
          <mxGeometry relative="1" as="geometry" />
        </mxCell>
        <mxCell id="32vG_aWgIUVik16R4zgf-97" style="edgeStyle=orthogonalEdgeStyle;rounded=0;orthogonalLoop=1;jettySize=auto;html=1;" edge="1" parent="1" source="32vG_aWgIUVik16R4zgf-78" target="32vG_aWgIUVik16R4zgf-31">
          <mxGeometry relative="1" as="geometry" />
        </mxCell>
        <mxCell id="32vG_aWgIUVik16R4zgf-98" style="edgeStyle=orthogonalEdgeStyle;rounded=0;orthogonalLoop=1;jettySize=auto;html=1;" edge="1" parent="1" source="32vG_aWgIUVik16R4zgf-71" target="32vG_aWgIUVik16R4zgf-34">
          <mxGeometry relative="1" as="geometry" />
        </mxCell>
      </root>
    </mxGraphModel>
  </diagram>
</mxfile>
